PathFileType	4	(X/Y/Z)	/Users/itak/Documents/Research/Walk-IL/dataset/trc/00410_00012.trc
DataRate	CameraRate	NumFrames	NumMarkers	Units	OrigDataRate	OrigDataStartFrame	OrigNumFrames
100.000000	100.000000	4	56	mm	100.000000	0	527
Frame#	Time	RPSI			LPSI			L3			STRN			T10			C7			CLAV			RBAK			LBAK			LSHO			LUPA			LAEL			LAOL			LWTS			LWPS			LFRA			LIFD			LHPS			LHTS			RSHO			RUPA			RAEL			RAOL			RWTS			RWPS			RFRA			RIFD			RHTS			RHPS			RBHD			LFHD			RFHD			LBHD			LHIP			RHIP			RASI			LASI			LKNE			LTHI			LANK			LTIP			LTOE			LMT1			LMT5			LHEE			RKNE			RTHI			RANK			RTIP			RTOE			RMT1			RMT5			RHEE			*53			*54			*55			
		X1	Y1	Z1	X2	Y2	Z2	X3	Y3	Z3	X4	Y4	Z4	X5	Y5	Z5	X6	Y6	Z6	X7	Y7	Z7	X8	Y8	Z8	X9	Y9	Z9	X10	Y10	Z10	X11	Y11	Z11	X12	Y12	Z12	X13	Y13	Z13	X14	Y14	Z14	X15	Y15	Z15	X16	Y16	Z16	X17	Y17	Z17	X18	Y18	Z18	X19	Y19	Z19	X20	Y20	Z20	X21	Y21	Z21	X22	Y22	Z22	X23	Y23	Z23	X24	Y24	Z24	X25	Y25	Z25	X26	Y26	Z26	X27	Y27	Z27	X28	Y28	Z28	X29	Y29	Z29	X30	Y30	Z30	X31	Y31	Z31	X32	Y32	Z32	X33	Y33	Z33	X34	Y34	Z34	X35	Y35	Z35	X36	Y36	Z36	X37	Y37	Z37	X38	Y38	Z38	X39	Y39	Z39	X40	Y40	Z40	X41	Y41	Z41	X42	Y42	Z42	X43	Y43	Z43	X44	Y44	Z44	X45	Y45	Z45	X46	Y46	Z46	X47	Y47	Z47	X48	Y48	Z48	X49	Y49	Z49	X50	Y50	Z50	X51	Y51	Z51	X52	Y52	Z52	X53	Y53	Z53	X54	Y54	Z54	X55	Y55	Z55	X56	Y56	Z56	

1	0	-842.1661987304688	988.9696655273438	756.3991088867188	-841.4181518554688	982.7178955078125	625.7393188476562	-842.9131469726562	1059.038330078125	691.8768920898438	-605.699951171875	1216.801025390625	709.6795043945312	-849.28515625	1162.303466796875	689.250732421875	-817.3306274414062	1412.199096679688	681.0928344726562	-660.2179565429688	1334.873779296875	703.9258422851562	-862.8201293945312	1264.959350585938	745.3408203125	-819.0189208984375	1375.433227539062	575.98876953125	-725.9596557617188	1390.8525390625	536.815673828125	-737.377685546875	1274.699829101562	462.1146240234375	-705.2982177734375	1077.562377929688	441.6716613769531	-774.2383422851562	1056.27587890625	487.8072814941406	-619.6322021484375	868.3196411132812	515.5430297851562	-645.0142822265625	853.2494506835938	438.2529296875	-680.5237426757812	974.0542602539062	438.1334838867188	-608.2853393554688	687.9609375	511.7720947265625	-629.6228637695312	767.9652709960938	452.6231689453125	-591.2015991210938	772.996337890625	503.6084899902344	-773.92919921875	1391.2880859375	844.8704223632812	-792.0745239257812	1326.47119140625	902.8142700195312	-785.553466796875	1065.8955078125	948.1417236328125	-801.6655883789062	1054.119140625	855.3525390625	-652.6204833984375	853.2024536132812	927.5927734375	-693.0261840820312	842.5315551757812	987.180419921875	-758.3101196289062	1001.148620605469	966.5533447265625	-646.3687744140625	681.4234008789062	932.8179321289062	-628.3682250976562	749.5712280273438	949.9505004882812	-684.1804809570312	753.3065185546875	988.8031005859375	-781.5985107421875	1603.154541015625	776.5160522460938	-624.6234741210938	1601.322143554688	655.1397705078125	-648.4530029296875	1603.08984375	775.7327880859375	-768.3604736328125	1599.873168945312	614.3309326171875	-733.7447509765625	959.7505493164062	529.5325927734375	-762.4498901367188	962.7207641601562	872.9025268554688	-628.3287353515625	974.91357421875	823.7962646484375	-636.0926513671875	969.5883178710938	561.4642333984375	-710.3032836914062	476.2047119140625	539.4525146484375	-714.3216552734375	619.1950073242188	527.3088989257812	-800.9940185546875	40.05149078369141	581.9064331054688	-761.2510375976562	245.1659698486328	548.6651000976562	-596.2044677734375	44.52163314819336	669.8281860351562	-679.20849609375	45.29536056518555	688.975830078125	-673.6939086914062	41.06572341918945	583.9783935546875	-844.83544921875	39.13399505615234	636.5263061523438	-724.4176635742188	475.33544921875	849.8135375976562	-684.0118408203125	737.1519775390625	875.152587890625	-792.8683471679688	56.43212127685547	813.9973754882812	-719.9070434570312	348.5168151855469	835.3670654296875	-608.2296752929688	42.11563491821289	769.7929077148438	-680.004638671875	44.60736846923828	732.0037841796875	-710.3849487304688	46.09284591674805	828.4327392578125	-860.3438720703125	44.55657577514648	754.4044189453125	nan	nan	nan	nan	nan	nan	nan	nan	nan	
2	0.01	-842.0897216796875	988.9678344726562	756.5950927734375	-841.3553466796875	982.7092895507812	625.7660522460938	-842.9649047851562	1059.07080078125	692.008544921875	-605.6780395507812	1216.792358398438	709.6954956054688	-849.2493896484375	1162.2783203125	689.2927856445312	-817.3197631835938	1412.191284179688	681.138671875	-660.2025756835938	1334.8525390625	703.951904296875	-862.7831420898438	1264.944091796875	745.3750610351562	-818.9832763671875	1375.40869140625	576.0289306640625	-725.9296264648438	1390.84716796875	536.8450317382812	-737.3634643554688	1274.683715820312	462.1459655761719	-705.2716674804688	1077.551513671875	441.6892395019531	-774.1893310546875	1056.260986328125	487.8428649902344	-619.6171264648438	868.2683715820312	515.4901733398438	-645.0298461914062	853.2267456054688	438.2335510253906	-680.5084228515625	974.0391235351562	438.1343994140625	-608.2886962890625	687.917724609375	511.6994323730469	-629.64453125	767.9111938476562	452.5773620605469	-591.21484375	772.9366455078125	503.5471496582031	-773.9061279296875	1391.287353515625	844.8762817382812	-791.9974365234375	1326.468505859375	902.8710327148438	-785.4931640625	1065.883422851562	948.2086791992188	-801.62744140625	1054.13720703125	855.3839721679688	-652.5308227539062	853.2127685546875	927.6410522460938	-692.9765625	842.5359497070312	987.2250366210938	-758.2067260742188	1001.158020019531	966.6275634765625	-646.3258056640625	681.427001953125	932.8783569335938	-628.3621826171875	749.5652465820312	950.0574951171875	-684.1380004882812	753.3131713867188	988.853515625	-781.5743408203125	1603.158569335938	776.5288696289062	-624.6082763671875	1601.317504882812	655.1304931640625	-648.4287719726562	1603.099731445312	775.7315063476562	-768.3422241210938	1599.869873046875	614.3319702148438	-733.6630859375	959.7266845703125	529.5708618164062	-762.5435180664062	962.7333984375	872.89208984375	-628.3074340820312	974.8984985351562	823.8073120117188	-636.0513916015625	969.5636596679688	561.5007934570312	-710.2777099609375	476.1983032226562	539.45361328125	-714.2693481445312	619.1851806640625	527.321533203125	-801.0013427734375	40.04628753662109	581.9034423828125	-761.2513427734375	245.1468048095703	548.6614379882812	-596.2180786132812	44.52251815795898	669.829345703125	-679.2066040039062	45.29652786254883	688.975341796875	-673.6942138671875	41.06653213500977	583.9791259765625	-844.8452758789062	39.11776351928711	636.5252685546875	-724.4014282226562	475.3271484375	849.825927734375	-683.9977416992188	737.13427734375	875.1876220703125	-792.86376953125	56.43429946899414	813.9918212890625	-719.9567260742188	348.5018615722656	835.3506469726562	-608.230224609375	42.11132049560547	769.7932739257812	-679.9998168945312	44.60585021972656	732.00244140625	-710.3689575195312	46.0964469909668	828.4283447265625	-860.3424682617188	44.56187057495117	754.4074096679688	nan	nan	nan	nan	nan	nan	nan	nan	nan	
3	0.02	-841.9959106445312	988.9625854492188	756.7816162109375	-841.2798461914062	982.7044677734375	625.80126953125	-842.988037109375	1059.097900390625	692.14990234375	-605.6476440429688	1216.781860351562	709.71826171875	-849.193359375	1162.246948242188	689.3533325195312	-817.2971801757812	1412.180908203125	681.1921997070312	-660.1799926757812	1334.82666015625	703.9890747070312	-862.7349853515625	1264.922973632812	745.4219970703125	-818.9266357421875	1375.376708984375	576.0840454101562	-725.8890380859375	1390.838989257812	536.8807983398438	-737.334716796875	1274.664184570312	462.1903381347656	-705.232421875	1077.536865234375	441.7158508300781	-774.1250610351562	1056.24169921875	487.8897705078125	-619.5925903320312	868.2001342773438	515.4347534179688	-645.0488891601562	853.1973876953125	438.2119445800781	-680.49072265625	974.0186157226562	438.1365966796875	-608.3064575195312	687.8665771484375	511.6197509765625	-629.66796875	767.846923828125	452.5303039550781	-591.2243041992188	772.8526000976562	503.4799499511719	-773.8779907226562	1391.286987304688	844.889404296875	-791.8987426757812	1326.465087890625	902.9444580078125	-785.4205932617188	1065.872314453125	948.2979736328125	-801.5848999023438	1054.15771484375	855.4288330078125	-652.4142456054688	853.2294311523438	927.7058715820312	-692.9255981445312	842.5438232421875	987.2874145507812	-758.0885009765625	1001.170532226562	966.7257080078125	-646.2745361328125	681.4332885742188	932.96630859375	-628.3468627929688	749.5579833984375	950.1923217773438	-684.0949096679688	753.3272705078125	988.9326171875	-781.5426025390625	1603.1630859375	776.5446166992188	-624.587646484375	1601.31298828125	655.1204833984375	-648.395263671875	1603.115112304688	775.7325439453125	-768.31982421875	1599.854614257812	614.3361206054688	-733.5584106445312	959.6985473632812	529.6176147460938	-762.6763305664062	962.7437744140625	872.8795166015625	-628.283203125	974.8777465820312	823.82568359375	-635.9987182617188	969.5352783203125	561.5469360351562	-710.2437744140625	476.1882019042969	539.4526977539062	-714.2056884765625	619.1729736328125	527.3344116210938	-801.0084838867188	40.03593444824219	581.8953857421875	-761.24609375	245.1224670410156	548.6558227539062	-596.2359008789062	44.52474594116211	669.83251953125	-679.2039184570312	45.29843521118164	688.9742431640625	-673.69482421875	41.06732177734375	583.9793090820312	-844.8580322265625	39.09975051879883	636.5245971679688	-724.3861083984375	475.3150634765625	849.84033203125	-683.98291015625	737.1105346679688	875.2305297851562	-792.85791015625	56.43801116943359	813.9829711914062	-720.0094604492188	348.4843139648438	835.3329467773438	-608.2317504882812	42.11155700683594	769.7930297851562	-679.9951782226562	44.60351943969727	732.0006103515625	-710.3544311523438	46.10113906860352	828.4243774414062	-860.3429565429688	44.56437301635742	754.4083251953125	nan	nan	nan	nan	nan	nan	nan	nan	nan	
4	0.03	-841.8895874023438	988.952880859375	756.9366455078125	-841.194091796875	982.7051391601562	625.8433227539062	-842.9713745117188	1059.115600585938	692.2897338867188	-605.6089477539062	1216.769653320312	709.7498168945312	-849.1165771484375	1162.2109375	689.4319458007812	-817.2586059570312	1412.167846679688	681.2492065429688	-660.1482543945312	1334.79931640625	704.0385131835938	-862.6767578125	1264.897094726562	745.4808959960938	-818.8461303710938	1375.338134765625	576.1539916992188	-725.837646484375	1390.827514648438	536.92138671875	-737.2861938476562	1274.642578125	462.2489624023438	-705.1787109375	1077.518676757812	441.7523803710938	-774.0464477539062	1056.219116210938	487.9473266601562	-619.5570678710938	868.1165771484375	515.383544921875	-645.070068359375	853.1621704101562	438.190673828125	-680.4713134765625	973.9929809570312	438.140869140625	-608.3435668945312	687.8099975585938	511.5415344238281	-629.6915893554688	767.7761840820312	452.4885559082031	-591.2333984375	772.7454833984375	503.4137268066406	-773.846435546875	1391.287353515625	844.912353515625	-791.7830810546875	1326.46044921875	903.0323486328125	-785.3404541015625	1065.8642578125	948.4085693359375	-801.5418090820312	1054.1787109375	855.4884643554688	-652.2757568359375	853.2537841796875	927.7866821289062	-692.880126953125	842.5559692382812	987.3687744140625	-757.9663696289062	1001.186218261719	966.8455810546875	-646.2199096679688	681.4418334960938	933.0829467773438	-628.3223876953125	749.5502319335938	950.349609375	-684.0567626953125	753.3499755859375	989.0441284179688	-781.5038452148438	1603.16796875	776.5624389648438	-624.5609130859375	1601.308837890625	655.1116943359375	-648.3504638671875	1603.136352539062	775.7376098632812	-768.294189453125	1599.8193359375	614.3446044921875	-733.4351196289062	959.6685791015625	529.6694946289062	-762.8401489257812	962.7478637695312	872.866943359375	-628.2576293945312	974.8511352539062	823.8526611328125	-635.9357299804688	969.5032958984375	561.6007690429688	-710.202392578125	476.1738586425781	539.4489135742188	-714.1326293945312	619.158447265625	527.3455200195312	-801.0145263671875	40.02036666870117	581.8820190429688	-761.2339477539062	245.0934753417969	548.6481323242188	-596.2578125	44.52833938598633	669.8385009765625	-679.2007446289062	45.30117797851562	688.9722900390625	-673.6958618164062	41.0680046081543	583.9788208007812	-844.8729858398438	39.08098602294922	636.5242309570312	-724.373291015625	475.2981262207031	849.85498046875	-683.969482421875	737.08056640625	875.2794189453125	-792.8515014648438	56.44356536865234	813.9708862304688	-720.0574340820312	348.4656066894531	835.315673828125	-608.2344970703125	42.11704635620117	769.7918090820312	-679.9925537109375	44.60016250610352	731.9981689453125	-710.3430786132812	46.10661697387695	828.4210205078125	-860.3446655273438	44.56268310546875	754.4058837890625	nan	nan	nan	nan	nan	nan	nan	nan	nan	
